# xmcd
#
# Track frame offsets:
#	183
#	12890
#	26315
#	41240
#	51468
#	64993
#	79268
#	91395
#	104220
#	118360
#	132223
#	144575
#	158120
#	170100
#	181980
#	194488
#	203650
#	216200
#	228853
#	243213
#
# Disc length: 3403 seconds
#
# Revision: 0
# Processed by: cddbd v1.4PL0 Copyright (c) Steve Scherf et al.
# Submitted via: EasyCDDAExtractor 4.5.0.2
#
DISCID=280d4914
DTITLE=Dionne Warwick - 20 Greatest Hits
DYEAR=1989
DGENRE=Oldies
TTITLE0=Walk On By
TTITLE1=I Say A Little Prayer
TTITLE2=Valley Of The Dolls
TTITLE3=I'll Never Fall In Love Again
TTITLE4=Anyone Who Had A Heart
TTITLE5=Message To Michael
TTITLE6=Do You Know The Way To San Jose
TTITLE7=Are You There With Another Girl
TTITLE8=Who Can I Turn To
TTITLE9=A House Is Not A Home
TTITLE10=Don't Make Me Over
TTITLE11=You'll Never Get To Heaven
TTITLE12=Make It Easy On Yourself
TTITLE13=Reach Out For Me
TTITLE14=Alfie
TTITLE15=You've Lost That Lovin' Feeling
TTITLE16=Trains and Boats and Planes
TTITLE17=I Just Don't Know what To Do With Myself
TTITLE18=The Window of The World
TTITLE19=Promises Promises
EXTD=
EXTT0=
EXTT1=
EXTT2=
EXTT3=
EXTT4=
EXTT5=
EXTT6=
EXTT7=
EXTT8=
EXTT9=
EXTT10=
EXTT11=
EXTT12=
EXTT13=
EXTT14=
EXTT15=
EXTT16=
EXTT17=
EXTT18=
EXTT19=
PLAYORDER=
